<?xml version="1.0" encoding="utf-8"?>
<!-- Svg Vector Icons : http://www.onlinewebfonts.com/icon -->
<!DOCTYPE svg PUBLIC "-//W3C//DTD SVG 1.1//EN" "http://www.w3.org/Graphics/SVG/1.1/DTD/svg11.dtd">
<svg version="1.1" xmlns="http://www.w3.org/2000/svg" xmlns:xlink="http://www.w3.org/1999/xlink" x="0px" y="0px" viewBox="0 0 256 256" enable-background="new 0 0 256 256" xml:space="preserve">
<metadata> Svg Vector Icons : http://www.onlinewebfonts.com/icon </metadata>
<g><g><g><path fill="#000000" d="M221.3,107.2c-0.4,0.5-2,3.3-3.5,6.3L215,119l-6.3,0.8c-3.9,0.5-6.6,1.2-7.1,1.7c-1.8,1.6-1.1,3.1,3.8,8l4.7,4.7L209,141c-1,6.4-1,6.7-0.2,7.7c0.5,0.5,1.3,1,1.9,1c0.5,0,3.6-1.4,6.7-3.1l5.8-3l5.7,3c3.1,1.7,6.1,3.1,6.6,3.1c1.2,0,2.6-1.5,2.6-3c0-0.6-0.4-3.7-1-6.8l-1-5.6l4.9-5c2.7-2.7,4.9-5.4,4.9-5.8c0-1.9-1.6-2.6-8.4-3.5l-6.5-0.9l-2.6-5.5c-1.4-3.1-3-5.9-3.4-6.3C224,106.1,222.2,106.1,221.3,107.2z M226.3,117.1l2.7,5.3l5.6,0.8c3.1,0.4,5.8,0.9,6.1,1c0.3,0.1-1.5,2.1-4,4.5l-4.5,4.3l1,5.6c0.5,3.1,1,5.9,1,6.2c0,0.3-2.5-0.8-5.5-2.4l-5.5-3l-5.7,3c-5.3,2.8-5.7,2.9-5.4,1.8c0.1-0.6,0.6-3.5,1.1-6.3l0.9-5.1l-4.5-4.3c-5.2-5-5.5-4.4,3-5.5l4.9-0.6l2.8-5.5c1.5-3.1,2.9-5.5,3.1-5.3C223.5,111.7,224.8,114.2,226.3,117.1z"/><path fill="#000000" d="M26.9,114.3c-1.6,3.3-3,6.1-3.1,6.1c-0.1,0.1-3.1,0.6-6.7,1.2c-3.6,0.5-6.8,1.2-7.1,1.5c-0.3,0.3,1.2,2.2,4.6,5.6l5.1,5.1l-1,5.9c-1.2,6.9-1.3,8.1-0.3,8.1c0.4,0,3.2-1.3,6.3-3c3.1-1.6,5.8-3,6.1-3c0.2,0,3,1.3,6.1,3c3.1,1.6,6,3,6.3,3c0.9,0,0.8-1.9-0.3-8.4l-1-5.6l5.1-5.1c3.6-3.6,4.9-5.2,4.5-5.6c-0.3-0.3-3.5-1-7.1-1.5c-3.6-0.5-6.6-1-6.7-1.1c0-0.1-1.4-2.8-3.1-6.2c-1.9-3.7-3.3-6-3.7-6C30.2,108.3,28.8,110.6,26.9,114.3z"/><path fill="#000000" d="M75.2,114.3c-1.6,3.3-3,6.1-3.1,6.1c-0.1,0.1-3.1,0.6-6.7,1.2c-3.6,0.5-6.8,1.2-7.1,1.5c-0.3,0.3,1.2,2.2,4.6,5.6l5.1,5.1l-1,5.9c-1.2,6.9-1.3,8.1-0.3,8.1c0.4,0,3.2-1.3,6.3-3c3.1-1.6,5.8-3,6.1-3c0.2,0,3,1.3,6.1,3c3.1,1.6,6,3,6.3,3c0.9,0,0.8-1.9-0.3-8.4l-1-5.6l5.1-5.1c3.6-3.6,4.9-5.2,4.5-5.6c-0.3-0.3-3.5-1-7.1-1.5c-3.6-0.5-6.6-1-6.7-1.1c0-0.1-1.4-2.8-3.1-6.2c-1.9-3.7-3.3-6-3.7-6C78.4,108.3,77,110.6,75.2,114.3z"/><path fill="#000000" d="M123.9,114.5c-1.6,3.4-3.1,6.2-3.3,6.2c-2.3,0.1-13.1,2-13.6,2.5c-0.4,0.4,0.8,1.9,4.6,5.6l5.1,5l-1,6c-1.2,6.9-1.3,8.1-0.4,8.1c0.3,0,3.2-1.4,6.5-3.1l5.9-3.1l5.2,2.7c2.8,1.4,5.5,2.9,5.9,3.1c0.4,0.3,1.1,0.4,1.5,0.2c0.6-0.2,0.6-1.1-0.4-7.1l-1.2-6.8l5-5c3.6-3.6,4.9-5.2,4.5-5.6c-0.3-0.3-3.5-1-7.1-1.5c-3.6-0.5-6.6-1-6.7-1.1c0-0.1-1.4-2.8-3.1-6.2c-1.9-3.8-3.3-6-3.8-6C127.1,108.3,125.8,110.5,123.9,114.5z"/><path fill="#000000" d="M171.2,114.5c-1.6,3.4-3.1,6.2-3.3,6.2c-2,0-13.3,2.1-13.7,2.5c-0.3,0.3,1,2,4.6,5.5l5.1,5l-1.1,6.2c-1.2,7.2-1.2,7.9-0.4,7.9c0.3,0,3.2-1.4,6.5-3.1l6-3.1l6.1,3.1c3.3,1.7,6.3,3,6.6,2.9c0.5-0.2,0.4-1.7-0.5-7.1l-1.2-6.8l5-5c3.6-3.6,4.9-5.2,4.5-5.6c-0.3-0.3-3.5-1-7.1-1.5c-3.6-0.5-6.6-1-6.7-1.1c0-0.1-1.4-2.8-3.1-6.2c-1.9-3.8-3.3-6-3.8-6C174.3,108.3,173.1,110.5,171.2,114.5z"/></g></g></g>
</svg>